<svg width="451" height="398" viewBox="0 0 451 398" fill="none" xmlns="http://www.w3.org/2000/svg">
<path d="M381.88 204.844C381.88 217.365 371.574 227.515 358.862 227.515C346.15 227.515 335.845 217.365 335.845 204.844C335.845 192.322 346.15 182.172 358.862 182.172C371.574 182.172 381.88 192.322 381.88 204.844Z" fill="#F4AF85"/>
<path d="M371.484 201.431L359.574 205.647C360.633 210.145 367.073 211.269 370.16 211.269C364.867 219.14 357.369 218.297 354.281 216.891C348.988 214.642 346.783 209.395 346.342 207.053C345.283 196.933 352.076 193.466 355.605 192.997C365.132 190.749 370.16 197.683 371.484 201.431Z" fill="white" stroke="white" stroke-width="4.0822"/>
<path d="M296.897 226.577V177.764C301.236 184.706 308.106 185.719 310.998 185.357C324.015 184.489 331.608 190.058 333.778 192.95L321.846 201.628C316.639 197.289 314.614 202.713 314.253 205.967V223.323L296.897 226.577Z" fill="#F4AF85"/>
<path d="M237.445 188.467L223.1 192.102V256.617C222.335 261.706 218.318 264.189 216.405 264.795C220.996 267.703 227.244 267.218 229.794 266.613C236.68 262.978 237.764 254.8 237.445 251.165V188.467Z" fill="white"/>
<path d="M224.074 182.716V170.445L237.495 167.378V179.648L224.074 182.716Z" fill="white"/>
<path d="M188.535 134.123L172.264 139.33V227.797L188.535 222.373V203.933C193.742 196.991 197.213 201.764 198.298 205.018V227.797L214.569 222.373V210.441C214.569 186.143 197.213 184.408 188.535 186.577V134.123Z" fill="white"/>
<path d="M161.78 223.323H141.17C131.624 224.19 124.899 217.899 122.729 214.645C118.391 207.703 120.922 199.459 122.729 196.204C127.936 187.527 140.809 185.357 146.594 185.357C156.139 185.357 160.696 180.295 161.78 177.764V223.323ZM141.171 198.374C138.176 198.374 135.747 200.802 135.747 203.797C135.747 206.793 138.175 209.221 141.171 209.221C144.166 209.221 146.594 206.792 146.594 203.797C146.594 200.802 144.166 198.374 141.171 198.374Z" fill="white"/>
<path d="M286.412 223.323H265.803C256.257 224.19 249.532 217.899 247.362 214.645C243.023 207.703 245.554 199.459 247.362 196.204C252.569 187.527 265.441 185.357 271.227 185.357C280.772 185.357 285.327 180.295 286.412 177.764V223.323ZM265.802 198.374C262.807 198.374 260.379 200.802 260.379 203.797C260.379 206.792 262.807 209.221 265.802 209.221C268.797 209.221 271.226 206.793 271.226 203.797C271.225 200.802 268.797 198.374 265.802 198.374Z" fill="white"/>
<path d="M85.0283 227.304L85.0283 139.627L101.299 131V224.16C101.622 224.234 101.983 224.333 102.378 224.456L85.0283 227.304Z" fill="white"/>
<path d="M98.6695 223.335L98.6272 223.335V223.326C114.336 227.014 131.833 247.229 145.904 248.573C150.778 249.039 153.896 247.559 157.6 244.851C157.484 244.809 157.711 244.901 157.6 244.851C156.077 246.221 153.562 249.752 151.992 250.8C128.929 266.194 104.636 232.673 83.44 229.348C79.4359 228.72 75.0599 230.047 72.4814 232.57C72.1726 232.872 71.5001 233.278 71 233.216C71.037 232.767 70.985 232.509 71.3348 232.142C77.9087 225.236 84.6447 220.57 98.6272 223.326C98.154 222.969 99.1164 223.672 98.6695 223.335Z" fill="white"/>
</svg>
