<svg width="265" height="117" viewBox="0 0 265 117" fill="none" xmlns="http://www.w3.org/2000/svg">
<path d="M264.081 63.3826C264.081 74.0188 255.327 82.6411 244.528 82.6411C233.73 82.6411 224.976 74.0188 224.976 63.3826C224.976 52.7464 233.73 44.124 244.528 44.124C255.327 44.124 264.081 52.7464 264.081 63.3826Z" fill="#F4AF85"/>
<path d="M255.25 60.4834L245.133 64.0652C246.032 67.8858 251.503 68.841 254.126 68.841C249.629 75.527 243.26 74.8106 240.637 73.6167C236.141 71.7064 234.267 67.249 233.892 65.2592C232.993 56.6628 238.763 53.7178 241.761 53.3198C249.854 51.4095 254.125 57.2996 255.25 60.4834Z" fill="white" stroke="white" stroke-width="3.46767"/>
<path d="M191.891 81.844V40.3794C195.577 46.2766 201.413 47.1366 203.87 46.8295C214.927 46.0923 221.377 50.8223 223.22 53.2795L213.084 60.651C208.661 56.9653 206.941 61.5724 206.634 64.3367V79.0797L191.891 81.844Z" fill="#F4AF85"/>
<path d="M141.389 49.4712L129.203 52.5587V107.362C128.553 111.685 125.141 113.794 123.516 114.309C127.416 116.779 132.723 116.367 134.89 115.853C140.739 112.765 141.66 105.818 141.389 102.731V49.4712Z" fill="white"/>
<path d="M130.031 44.5856V34.1626L141.431 31.5569V41.9798L130.031 44.5856Z" fill="white"/>
<path d="M99.8416 2.65308L86.02 7.07567V82.2253L99.8416 77.6182V61.9537C104.264 56.0565 107.213 60.1109 108.134 62.8752V82.2253L121.956 77.6182V67.4824C121.956 46.8422 107.213 45.3679 99.8416 47.2107V2.65308Z" fill="white"/>
<path fill-rule="evenodd" clip-rule="evenodd" d="M77.1142 78.4243H59.6064C51.498 79.1614 45.7853 73.8176 43.9423 71.0532C40.2566 65.156 42.4066 58.1525 43.9423 55.3882C48.3653 48.017 59.2995 46.1743 64.2138 46.1743C72.3224 46.1743 76.1928 41.8741 77.1142 39.7241V78.4243ZM59.6074 57.231C57.063 57.231 55.0001 59.294 54.9999 61.8384C54.9999 64.3829 57.0629 66.4458 59.6074 66.4458C62.1517 66.4457 64.2148 64.3828 64.2148 61.8384C64.2147 59.2941 62.1517 57.2311 59.6074 57.231Z" fill="white"/>
<path fill-rule="evenodd" clip-rule="evenodd" d="M182.984 78.4243H165.477C157.369 79.1614 151.656 73.8176 149.813 71.0532C146.128 65.156 148.278 58.1525 149.813 55.3882C154.237 48.0171 165.171 46.1743 170.085 46.1743C178.193 46.1742 182.063 41.8741 182.984 39.7241V78.4243ZM165.476 57.231C162.932 57.2312 160.87 59.2941 160.87 61.8384C160.87 64.3827 162.932 66.4456 165.476 66.4458C168.021 66.4458 170.084 64.3829 170.084 61.8384C170.084 59.294 168.021 57.231 165.476 57.231Z" fill="white"/>
<path d="M11.9165 81.8069L11.9165 7.32864L25.7381 0V79.1355C26.012 79.1987 26.3187 79.283 26.6541 79.3876L11.9165 81.8069Z" fill="white"/>
<path d="M23.5042 78.4354L23.4682 78.4353V78.4269C36.8125 81.56 51.6753 98.7321 63.6278 99.8738C67.7683 100.269 70.4173 99.0127 73.5631 96.7119C73.465 96.6763 73.6576 96.7547 73.5631 96.7119C72.2694 97.8756 70.1337 100.875 68.7992 101.765C49.2082 114.842 28.5724 86.3669 10.5673 83.5431C7.16593 83.0095 3.44871 84.1365 1.2584 86.2797C0.996058 86.5363 0.424849 86.8813 0 86.8285C0.0314388 86.447 -0.0127478 86.2283 0.284434 85.916C5.86865 80.0495 11.5906 76.0866 23.4682 78.4269C23.0663 78.1237 23.8838 78.7214 23.5042 78.4354Z" fill="white"/>
</svg>
