<svg width="196" height="106" viewBox="0 0 196 106" fill="none" xmlns="http://www.w3.org/2000/svg">
<path d="M195.54 46.4466C195.54 54.3223 189.058 60.7067 181.062 60.7067C173.066 60.7067 166.584 54.3223 166.584 46.4466C166.584 38.571 173.066 32.1865 181.062 32.1865C189.058 32.1865 195.54 38.571 195.54 46.4466Z" fill="#F4AF85"/>
<path d="M189.001 44.2993L181.51 46.9515C182.176 49.7804 186.226 50.4877 188.169 50.4877C184.839 55.4384 180.123 54.908 178.181 54.0239C174.852 52.6094 173.464 49.3089 173.187 47.8355C172.521 41.4703 176.794 39.2897 179.013 38.995C185.006 37.5805 188.169 41.9418 189.001 44.2993Z" fill="white" stroke="white" stroke-width="3.00702"/>
<path d="M142.087 60.1168V29.4141C144.816 33.7807 149.137 34.4175 150.957 34.19C159.144 33.6442 163.92 37.1466 165.285 38.966L157.779 44.4243C154.504 41.6952 153.231 45.1066 153.003 47.1534V58.0699L142.087 60.1168Z" fill="#F4AF85"/>
<path d="M104.692 36.1465L95.6688 38.4327V79.0122C95.1876 82.2128 92.6611 83.7751 91.458 84.1561C94.3454 85.985 98.2755 85.6802 99.8796 85.2992C104.211 83.013 104.892 77.8691 104.692 75.5829V36.1465Z" fill="#143D82"/>
<path d="M96.2817 32.528V24.8103L104.723 22.8809V30.5986L96.2817 32.528Z" fill="#143D82"/>
<path d="M73.9281 1.96387L63.6938 5.2386V60.8836L73.9281 57.4722V45.8734C77.2031 41.5068 79.3864 44.5088 80.0686 46.5557V60.8836L90.3029 57.4722V49.9671C90.3029 34.6839 79.3864 33.5923 73.9281 34.9569V1.96387Z" fill="#143D82"/>
<path fill-rule="evenodd" clip-rule="evenodd" d="M57.0996 58.0684H44.1358C38.1318 58.6141 33.9017 54.6572 32.5371 52.6104C29.8081 48.2439 31.4 43.0587 32.5371 41.0117C35.812 35.5537 43.9078 34.1886 47.5469 34.1885C53.5507 34.1885 56.4172 31.0052 57.0996 29.4131V58.0684ZM44.1367 42.377C42.2527 42.377 40.7247 43.9041 40.7246 45.7881C40.7246 47.6722 42.2527 49.1992 44.1367 49.1992C46.0206 49.199 47.5479 47.672 47.5479 45.7881C47.5478 43.9042 46.0206 42.3772 44.1367 42.377Z" fill="#143D82"/>
<path fill-rule="evenodd" clip-rule="evenodd" d="M135.493 58.0684H122.529C116.525 58.6142 112.295 54.6572 110.93 52.6104C108.201 48.2438 109.793 43.0586 110.93 41.0117C114.205 35.5536 122.301 34.1886 125.94 34.1885C131.944 34.1885 134.81 31.0051 135.493 29.4131V58.0684ZM122.529 42.377C120.645 42.377 119.118 43.9041 119.118 45.7881C119.118 47.6722 120.645 49.1992 122.529 49.1992C124.413 49.1991 125.94 47.6721 125.94 45.7881C125.94 43.9042 124.413 42.3771 122.529 42.377Z" fill="#143D82"/>
<path d="M8.82373 60.5744L8.82373 5.42653L19.058 0V58.5963C19.2608 58.6432 19.4879 58.7056 19.7363 58.783L8.82373 60.5744Z" fill="#143D82"/>
<path d="M17.4038 58.0784L17.3772 58.0784V58.0721C27.2581 60.392 38.2632 73.1072 47.1135 73.9526C50.1795 74.2454 52.1409 73.315 54.4702 71.6113C54.3976 71.585 54.5402 71.6431 54.4702 71.6113C53.5123 72.473 51.9309 74.6939 50.9428 75.3533C36.4365 85.0357 21.1566 63.9514 7.8246 61.8604C5.30606 61.4654 2.55362 62.2999 0.931791 63.8868C0.737537 64.0768 0.314582 64.3323 0 64.2932C0.0232791 64.0107 -0.00943916 63.8487 0.210611 63.6175C4.34548 59.2736 8.58234 56.3393 17.3772 58.0721C17.0796 57.8476 17.6849 58.2902 17.4038 58.0784Z" fill="#143D82"/>
<path d="M16.0746 102V89.6364H18.6886V99.8448H23.989V102H16.0746ZM28.316 102.175C27.7243 102.175 27.1971 102.072 26.7343 101.867C26.2715 101.658 25.9052 101.35 25.6356 100.944C25.3699 100.533 25.2371 100.022 25.2371 99.4102C25.2371 98.895 25.3317 98.4624 25.5209 98.1122C25.71 97.7621 25.9676 97.4804 26.2936 97.267C26.6196 97.0537 26.9898 96.8928 27.4044 96.7841C27.8229 96.6754 28.2616 96.599 28.7204 96.5547C29.2597 96.4983 29.6944 96.446 30.0244 96.3977C30.3544 96.3454 30.5939 96.2689 30.7428 96.1683C30.8917 96.0677 30.9662 95.9188 30.9662 95.7216V95.6854C30.9662 95.303 30.8454 95.0072 30.604 94.7979C30.3665 94.5887 30.0284 94.484 29.5898 94.484C29.1269 94.484 28.7587 94.5866 28.485 94.7919C28.2113 94.9931 28.0302 95.2467 27.9417 95.5526L25.5631 95.3594C25.6839 94.7959 25.9213 94.3089 26.2755 93.8984C26.6296 93.4839 27.0864 93.166 27.6459 92.9446C28.2093 92.7192 28.8613 92.6065 29.6018 92.6065C30.117 92.6065 30.61 92.6669 31.0809 92.7876C31.5558 92.9084 31.9764 93.0955 32.3426 93.3491C32.7129 93.6026 33.0046 93.9286 33.218 94.3271C33.4313 94.7215 33.5379 95.1944 33.5379 95.7457V102H31.099V100.714H31.0265C30.8776 101.004 30.6784 101.259 30.4289 101.481C30.1794 101.698 29.8795 101.869 29.5294 101.994C29.1792 102.115 28.7748 102.175 28.316 102.175ZM29.0525 100.4C29.4308 100.4 29.7648 100.326 30.0546 100.177C30.3444 100.024 30.5718 99.8187 30.7368 99.5611C30.9018 99.3035 30.9843 99.0117 30.9843 98.6857V97.7017C30.9038 97.754 30.7931 97.8023 30.6523 97.8466C30.5154 97.8868 30.3605 97.9251 30.1874 97.9613C30.0144 97.9935 29.8413 98.0237 29.6682 98.0518C29.4952 98.076 29.3382 98.0981 29.1974 98.1183C28.8955 98.1625 28.6319 98.233 28.4065 98.3295C28.1811 98.4261 28.0061 98.5569 27.8813 98.7219C27.7565 98.8829 27.6942 99.0842 27.6942 99.3256C27.6942 99.6758 27.8209 99.9434 28.0745 100.129C28.3321 100.31 28.6581 100.4 29.0525 100.4ZM38.1048 96.6392V102H35.5331V92.7273H37.9841V94.3633H38.0928C38.298 93.824 38.6421 93.3974 39.1251 93.0835C39.608 92.7655 40.1936 92.6065 40.8818 92.6065C41.5258 92.6065 42.0872 92.7474 42.5661 93.0291C43.0451 93.3108 43.4173 93.7133 43.683 94.2365C43.9486 94.7557 44.0814 95.3755 44.0814 96.0959V102H41.5097V96.5547C41.5137 95.9872 41.3688 95.5445 41.075 95.2266C40.7812 94.9046 40.3767 94.7436 39.8616 94.7436C39.5155 94.7436 39.2096 94.8181 38.944 94.967C38.6824 95.1159 38.4771 95.3332 38.3282 95.619C38.1833 95.9007 38.1089 96.2408 38.1048 96.6392ZM50.2859 105.67C49.4528 105.67 48.7384 105.556 48.1428 105.326C47.5511 105.101 47.0803 104.793 46.7301 104.403C46.38 104.012 46.1526 103.574 46.0479 103.087L48.4265 102.767C48.4989 102.952 48.6136 103.125 48.7706 103.286C48.9276 103.447 49.1348 103.576 49.3924 103.672C49.654 103.773 49.9719 103.823 50.3462 103.823C50.9057 103.823 51.3665 103.686 51.7287 103.413C52.0949 103.143 52.2781 102.69 52.2781 102.054V100.358H52.1694C52.0567 100.616 51.8877 100.859 51.6623 101.088C51.4369 101.318 51.1471 101.505 50.793 101.65C50.4388 101.795 50.0162 101.867 49.5252 101.867C48.829 101.867 48.1951 101.706 47.6236 101.384C47.0561 101.058 46.6033 100.561 46.2653 99.8931C45.9312 99.221 45.7642 98.3718 45.7642 97.3455C45.7642 96.2951 45.9353 95.4177 46.2773 94.7134C46.6194 94.0091 47.0742 93.4819 47.6417 93.1317C48.2132 92.7816 48.839 92.6065 49.5192 92.6065C50.0384 92.6065 50.473 92.6951 50.8232 92.8722C51.1733 93.0452 51.455 93.2625 51.6683 93.5241C51.8857 93.7817 52.0527 94.0353 52.1694 94.2848H52.266V92.7273H54.8196V102.091C54.8196 102.879 54.6264 103.539 54.2401 104.071C53.8537 104.602 53.3184 105 52.6342 105.266C51.9541 105.536 51.1713 105.67 50.2859 105.67ZM50.3402 99.9354C50.7547 99.9354 51.1049 99.8327 51.3906 99.6275C51.6804 99.4182 51.9018 99.1204 52.0547 98.734C52.2116 98.3436 52.2901 97.8768 52.2901 97.3335C52.2901 96.7901 52.2137 96.3192 52.0607 95.9208C51.9078 95.5183 51.6864 95.2064 51.3967 94.9851C51.1069 94.7637 50.7547 94.6531 50.3402 94.6531C49.9176 94.6531 49.5614 94.7678 49.2717 94.9972C48.9819 95.2225 48.7625 95.5365 48.6136 95.9389C48.4647 96.3414 48.3903 96.8062 48.3903 97.3335C48.3903 97.8687 48.4647 98.3316 48.6136 98.7219C48.7666 99.1083 48.9859 99.4081 49.2717 99.6214C49.5614 99.8307 49.9176 99.9354 50.3402 99.9354ZM62.8125 98.0518V92.7273H65.3842V102H62.9151V100.316H62.8185C62.6093 100.859 62.2611 101.296 61.7741 101.626C61.2912 101.956 60.7016 102.121 60.0053 102.121C59.3855 102.121 58.8402 101.98 58.3693 101.698C57.8984 101.416 57.5302 101.016 57.2646 100.497C57.003 99.9776 56.8701 99.3558 56.8661 98.6314V92.7273H59.4379V98.1726C59.4419 98.7199 59.5888 99.1526 59.8786 99.4705C60.1683 99.7885 60.5567 99.9474 61.0437 99.9474C61.3536 99.9474 61.6433 99.877 61.913 99.7362C62.1826 99.5913 62.4 99.378 62.565 99.0962C62.734 98.8145 62.8165 98.4664 62.8125 98.0518ZM70.0855 102.175C69.4939 102.175 68.9666 102.072 68.5038 101.867C68.041 101.658 67.6747 101.35 67.4051 100.944C67.1395 100.533 67.0067 100.022 67.0067 99.4102C67.0067 98.895 67.1012 98.4624 67.2904 98.1122C67.4796 97.7621 67.7371 97.4804 68.0631 97.267C68.3891 97.0537 68.7594 96.8928 69.1739 96.7841C69.5925 96.6754 70.0312 96.599 70.49 96.5547C71.0293 96.4983 71.4639 96.446 71.7939 96.3977C72.124 96.3454 72.3634 96.2689 72.5123 96.1683C72.6613 96.0677 72.7357 95.9188 72.7357 95.7216V95.6854C72.7357 95.303 72.615 95.0072 72.3735 94.7979C72.136 94.5887 71.798 94.484 71.3593 94.484C70.8965 94.484 70.5282 94.5866 70.2545 94.7919C69.9809 94.9931 69.7997 95.2467 69.7112 95.5526L67.3327 95.3594C67.4534 94.7959 67.6908 94.3089 68.045 93.8984C68.3992 93.4839 68.856 93.166 69.4154 92.9446C69.9788 92.7192 70.6308 92.6065 71.3714 92.6065C71.8865 92.6065 72.3795 92.6669 72.8504 92.7876C73.3253 92.9084 73.7459 93.0955 74.1121 93.3491C74.4824 93.6026 74.7742 93.9286 74.9875 94.3271C75.2008 94.7215 75.3074 95.1944 75.3074 95.7457V102H72.8685V100.714H72.7961C72.6472 101.004 72.4479 101.259 72.1984 101.481C71.9489 101.698 71.6491 101.869 71.2989 101.994C70.9488 102.115 70.5443 102.175 70.0855 102.175ZM70.822 100.4C71.2003 100.4 71.5344 100.326 71.8241 100.177C72.1139 100.024 72.3413 99.8187 72.5063 99.5611C72.6713 99.3035 72.7538 99.0117 72.7538 98.6857V97.7017C72.6733 97.754 72.5626 97.8023 72.4218 97.8466C72.2849 97.8868 72.13 97.9251 71.9569 97.9613C71.7839 97.9935 71.6108 98.0237 71.4378 98.0518C71.2647 98.076 71.1077 98.0981 70.9669 98.1183C70.665 98.1625 70.4014 98.233 70.176 98.3295C69.9507 98.4261 69.7756 98.5569 69.6508 98.7219C69.5261 98.8829 69.4637 99.0842 69.4637 99.3256C69.4637 99.6758 69.5905 99.9434 69.844 100.129C70.1016 100.31 70.4276 100.4 70.822 100.4ZM81.4802 105.67C80.6471 105.67 79.9327 105.556 79.3371 105.326C78.7455 105.101 78.2746 104.793 77.9244 104.403C77.5743 104.012 77.3469 103.574 77.2423 103.087L79.6208 102.767C79.6933 102.952 79.808 103.125 79.9649 103.286C80.1219 103.447 80.3292 103.576 80.5867 103.672C80.8483 103.773 81.1663 103.823 81.5406 103.823C82.1 103.823 82.5608 103.686 82.923 103.413C83.2893 103.143 83.4724 102.69 83.4724 102.054V100.358H83.3637C83.251 100.616 83.082 100.859 82.8566 101.088C82.6312 101.318 82.3415 101.505 81.9873 101.65C81.6331 101.795 81.2106 101.867 80.7195 101.867C80.0233 101.867 79.3894 101.706 78.8179 101.384C78.2504 101.058 77.7977 100.561 77.4596 99.8931C77.1256 99.221 76.9585 98.3718 76.9585 97.3455C76.9585 96.2951 77.1296 95.4177 77.4717 94.7134C77.8138 94.0091 78.2686 93.4819 78.836 93.1317C79.4075 92.7816 80.0334 92.6065 80.7135 92.6065C81.2327 92.6065 81.6673 92.6951 82.0175 92.8722C82.3676 93.0452 82.6494 93.2625 82.8627 93.5241C83.08 93.7817 83.247 94.0353 83.3637 94.2848H83.4603V92.7273H86.0139V102.091C86.0139 102.879 85.8208 103.539 85.4344 104.071C85.048 104.602 84.5128 105 83.8286 105.266C83.1484 105.536 82.3656 105.67 81.4802 105.67ZM81.5345 99.9354C81.9491 99.9354 82.2992 99.8327 82.585 99.6275C82.8747 99.4182 83.0961 99.1204 83.249 98.734C83.406 98.3436 83.4845 97.8768 83.4845 97.3335C83.4845 96.7901 83.408 96.3192 83.2551 95.9208C83.1021 95.5183 82.8808 95.2064 82.591 94.9851C82.3012 94.7637 81.9491 94.6531 81.5345 94.6531C81.1119 94.6531 80.7558 94.7678 80.466 94.9972C80.1762 95.2225 79.9569 95.5365 79.808 95.9389C79.6591 96.3414 79.5846 96.8062 79.5846 97.3335C79.5846 97.8687 79.6591 98.3316 79.808 98.7219C79.9609 99.1083 80.1802 99.4081 80.466 99.6214C80.7558 99.8307 81.1119 99.9354 81.5345 99.9354ZM92.2863 102.181C91.3325 102.181 90.5115 101.988 89.8232 101.602C89.1391 101.211 88.6118 100.66 88.2416 99.9474C87.8713 99.2311 87.6862 98.3839 87.6862 97.4059C87.6862 96.4521 87.8713 95.6149 88.2416 94.8945C88.6118 94.1741 89.133 93.6127 89.8051 93.2102C90.4813 92.8078 91.2741 92.6065 92.1837 92.6065C92.7954 92.6065 93.3649 92.7051 93.8921 92.9023C94.4234 93.0955 94.8862 93.3873 95.2806 93.7777C95.6791 94.1681 95.989 94.6591 96.2103 95.2507C96.4317 95.8383 96.5423 96.5265 96.5423 97.3153V98.0217H88.7124V96.4279H94.1215C94.1215 96.0576 94.041 95.7296 93.8801 95.4439C93.7191 95.1581 93.4957 94.9348 93.21 94.7738C92.9282 94.6088 92.6002 94.5263 92.2259 94.5263C91.8356 94.5263 91.4894 94.6168 91.1876 94.7979C90.8898 94.975 90.6563 95.2145 90.4873 95.5163C90.3183 95.8142 90.2317 96.1462 90.2277 96.5124V98.0277C90.2277 98.4865 90.3122 98.8829 90.4813 99.217C90.6543 99.551 90.8978 99.8086 91.2117 99.9897C91.5257 100.171 91.8979 100.261 92.3286 100.261C92.6143 100.261 92.8759 100.221 93.1134 100.141C93.3508 100.06 93.5541 99.9394 93.7231 99.7784C93.8921 99.6174 94.0209 99.4202 94.1095 99.1868L96.488 99.3438C96.3673 99.9152 96.1198 100.414 95.7455 100.841C95.3752 101.263 94.8963 101.594 94.3087 101.831C93.7251 102.064 93.051 102.181 92.2863 102.181ZM105.936 95.3714L103.581 95.5163C103.541 95.3151 103.455 95.134 103.322 94.973C103.189 94.808 103.014 94.6772 102.797 94.5806C102.583 94.48 102.328 94.4297 102.03 94.4297C101.631 94.4297 101.295 94.5142 101.022 94.6832C100.748 94.8482 100.611 95.0696 100.611 95.3473C100.611 95.5687 100.7 95.7558 100.877 95.9087C101.054 96.0617 101.358 96.1844 101.788 96.277L103.467 96.6151C104.368 96.8002 105.04 97.098 105.483 97.5085C105.926 97.919 106.147 98.4583 106.147 99.1264C106.147 99.7341 105.968 100.267 105.61 100.726C105.256 101.185 104.769 101.543 104.149 101.801C103.533 102.054 102.823 102.181 102.018 102.181C100.79 102.181 99.8124 101.926 99.0839 101.414C98.3595 100.899 97.9349 100.199 97.8101 99.3136L100.34 99.1808C100.416 99.555 100.601 99.8408 100.895 100.038C101.189 100.231 101.565 100.328 102.024 100.328C102.475 100.328 102.837 100.241 103.111 100.068C103.388 99.8911 103.529 99.6637 103.533 99.386C103.529 99.1526 103.43 98.9614 103.237 98.8125C103.044 98.6596 102.746 98.5429 102.344 98.4624L100.738 98.1424C99.8325 97.9613 99.1584 97.6474 98.7156 97.2006C98.277 96.7539 98.0576 96.1844 98.0576 95.4922C98.0576 94.8965 98.2186 94.3834 98.5406 93.9528C98.8666 93.5221 99.3234 93.1901 99.911 92.9567C100.503 92.7232 101.195 92.6065 101.988 92.6065C103.159 92.6065 104.08 92.854 104.753 93.3491C105.429 93.8441 105.823 94.5182 105.936 95.3714ZM114.363 89.6364V102H111.749V89.6364H114.363ZM119.037 96.6392V102H116.466V92.7273H118.917V94.3633H119.025C119.231 93.824 119.575 93.3974 120.058 93.0835C120.541 92.7655 121.126 92.6065 121.814 92.6065C122.458 92.6065 123.02 92.7474 123.499 93.0291C123.978 93.3108 124.35 93.7133 124.616 94.2365C124.881 94.7557 125.014 95.3755 125.014 96.0959V102H122.442V96.5547C122.446 95.9872 122.301 95.5445 122.008 95.2266C121.714 94.9046 121.309 94.7436 120.794 94.7436C120.448 94.7436 120.142 94.8181 119.877 94.967C119.615 95.1159 119.41 95.3332 119.261 95.619C119.116 95.9007 119.041 96.2408 119.037 96.6392ZM134.756 95.3714L132.402 95.5163C132.361 95.3151 132.275 95.134 132.142 94.973C132.009 94.808 131.834 94.6772 131.617 94.5806C131.404 94.48 131.148 94.4297 130.85 94.4297C130.452 94.4297 130.116 94.5142 129.842 94.6832C129.568 94.8482 129.432 95.0696 129.432 95.3473C129.432 95.5687 129.52 95.7558 129.697 95.9087C129.874 96.0617 130.178 96.1844 130.609 96.277L132.287 96.6151C133.189 96.8002 133.861 97.098 134.303 97.5085C134.746 97.919 134.967 98.4583 134.967 99.1264C134.967 99.7341 134.788 100.267 134.43 100.726C134.076 101.185 133.589 101.543 132.969 101.801C132.353 102.054 131.643 102.181 130.838 102.181C129.611 102.181 128.633 101.926 127.904 101.414C127.18 100.899 126.755 100.199 126.63 99.3136L129.16 99.1808C129.236 99.555 129.421 99.8408 129.715 100.038C130.009 100.231 130.385 100.328 130.844 100.328C131.295 100.328 131.657 100.241 131.931 100.068C132.209 99.8911 132.349 99.6637 132.353 99.386C132.349 99.1526 132.251 98.9614 132.058 98.8125C131.864 98.6596 131.567 98.5429 131.164 98.4624L129.558 98.1424C128.653 97.9613 127.979 97.6474 127.536 97.2006C127.097 96.7539 126.878 96.1844 126.878 95.4922C126.878 94.8965 127.039 94.3834 127.361 93.9528C127.687 93.5221 128.144 93.1901 128.731 92.9567C129.323 92.7232 130.015 92.6065 130.808 92.6065C131.979 92.6065 132.901 92.854 133.573 93.3491C134.249 93.8441 134.643 94.5182 134.756 95.3714ZM141.519 92.7273V94.6591H135.935V92.7273H141.519ZM137.203 90.5057H139.774V99.1506C139.774 99.388 139.811 99.5732 139.883 99.706C139.955 99.8348 140.056 99.9253 140.185 99.9776C140.318 100.03 140.471 100.056 140.644 100.056C140.764 100.056 140.885 100.046 141.006 100.026C141.127 100.002 141.219 99.9837 141.284 99.9716L141.688 101.885C141.559 101.926 141.378 101.972 141.145 102.024C140.911 102.08 140.628 102.115 140.294 102.127C139.674 102.151 139.13 102.068 138.664 101.879C138.201 101.69 137.84 101.396 137.583 100.998C137.325 100.599 137.199 100.096 137.203 99.4886V90.5057ZM143.194 102V92.7273H145.766V102H143.194ZM144.486 91.532C144.104 91.532 143.776 91.4052 143.502 91.1516C143.232 90.8941 143.098 90.5862 143.098 90.228C143.098 89.8738 143.232 89.57 143.502 89.3164C143.776 89.0588 144.104 88.93 144.486 88.93C144.868 88.93 145.194 89.0588 145.464 89.3164C145.738 89.57 145.875 89.8738 145.875 90.228C145.875 90.5862 145.738 90.8941 145.464 91.1516C145.194 91.4052 144.868 91.532 144.486 91.532ZM152.758 92.7273V94.6591H147.174V92.7273H152.758ZM148.442 90.5057H151.014V99.1506C151.014 99.388 151.05 99.5732 151.122 99.706C151.195 99.8348 151.295 99.9253 151.424 99.9776C151.557 100.03 151.71 100.056 151.883 100.056C152.004 100.056 152.124 100.046 152.245 100.026C152.366 100.002 152.458 99.9837 152.523 99.9716L152.927 101.885C152.799 101.926 152.617 101.972 152.384 102.024C152.151 102.08 151.867 102.115 151.533 102.127C150.913 102.151 150.37 102.068 149.903 101.879C149.44 101.69 149.08 101.396 148.822 100.998C148.565 100.599 148.438 100.096 148.442 99.4886V90.5057ZM160.38 98.0518V92.7273H162.952V102H160.483V100.316H160.386C160.177 100.859 159.829 101.296 159.342 101.626C158.859 101.956 158.269 102.121 157.573 102.121C156.953 102.121 156.408 101.98 155.937 101.698C155.466 101.416 155.098 101.016 154.832 100.497C154.57 99.9776 154.438 99.3558 154.434 98.6314V92.7273H157.005V98.1726C157.009 98.7199 157.156 99.1526 157.446 99.4705C157.736 99.7885 158.124 99.9474 158.611 99.9474C158.921 99.9474 159.211 99.877 159.48 99.7362C159.75 99.5913 159.967 99.378 160.132 99.0962C160.301 98.8145 160.384 98.4664 160.38 98.0518ZM169.941 92.7273V94.6591H164.357V92.7273H169.941ZM165.624 90.5057H168.196V99.1506C168.196 99.388 168.232 99.5732 168.305 99.706C168.377 99.8348 168.478 99.9253 168.607 99.9776C168.74 100.03 168.892 100.056 169.066 100.056C169.186 100.056 169.307 100.046 169.428 100.026C169.548 100.002 169.641 99.9837 169.705 99.9716L170.11 101.885C169.981 101.926 169.8 101.972 169.567 102.024C169.333 102.08 169.049 102.115 168.715 102.127C168.096 102.151 167.552 102.068 167.085 101.879C166.623 101.69 166.262 101.396 166.005 100.998C165.747 100.599 165.62 100.096 165.624 99.4886V90.5057ZM175.742 102.181C174.789 102.181 173.968 101.988 173.279 101.602C172.595 101.211 172.068 100.66 171.698 99.9474C171.327 99.2311 171.142 98.3839 171.142 97.4059C171.142 96.4521 171.327 95.6149 171.698 94.8945C172.068 94.1741 172.589 93.6127 173.261 93.2102C173.937 92.8078 174.73 92.6065 175.64 92.6065C176.251 92.6065 176.821 92.7051 177.348 92.9023C177.879 93.0955 178.342 93.3873 178.737 93.7777C179.135 94.1681 179.445 94.6591 179.666 95.2507C179.888 95.8383 179.998 96.5265 179.998 97.3153V98.0217H172.169V96.4279H177.578C177.578 96.0576 177.497 95.7296 177.336 95.4439C177.175 95.1581 176.952 94.9348 176.666 94.7738C176.384 94.6088 176.056 94.5263 175.682 94.5263C175.292 94.5263 174.945 94.6168 174.644 94.7979C174.346 94.975 174.112 95.2145 173.943 95.5163C173.774 95.8142 173.688 96.1462 173.684 96.5124V98.0277C173.684 98.4865 173.768 98.8829 173.937 99.217C174.11 99.551 174.354 99.8086 174.668 99.9897C174.982 100.171 175.354 100.261 175.785 100.261C176.07 100.261 176.332 100.221 176.569 100.141C176.807 100.06 177.01 99.9394 177.179 99.7784C177.348 99.6174 177.477 99.4202 177.566 99.1868L179.944 99.3438C179.823 99.9152 179.576 100.414 179.202 100.841C178.831 101.263 178.352 101.594 177.765 101.831C177.181 102.064 176.507 102.181 175.742 102.181Z" fill="#424242"/>
</svg>
